Hi Friends,


You can download all my torrents from the following address
 
http://thepiratebay.org/search/chirutha/0/7/0



I hope all you enjoyed these movies


The Matrix Reloaded (2003)  Telugu BRRip - by Chirutha



*********    {In this torrent, It includes Screenshots and Samples}    *********



      Format : AVI
      Format/Info : Audio Video Interleave
      File size : 701 MiB
      Duration : 2h 1mn
      Overall bit rate : 804 Kbps
      
   Video #0
      ID : 0
      Format : MPEG-4 Visual
      Format profile : AdvancedSimple@L5
      Format settings, BVOP : Yes
      Format settings, QPel : No
      Format settings, GMC : No warppoints
      Format settings, Matrix : Default (H.263)
      Muxing mode : Packed bitstream
      Codec ID : XVID
      Codec ID/Hint : XviD
      Duration : 2h 1mn
      Bit rate : 699 Kbps
      Width : 720 pixels
      Height : 304 pixels
      Display aspect ratio : 2.35:1
      Frame rate : 23.976 fps
      Resolution : 24 bits
      Colorimetry : 4:2:0
      Scan type : Progressive
      Bits/(Pixel*Frame) : 0.133
      Stream size : 609 MiB (87%)
      Writing library : XviD 1.2.1 (UTC 2008-12-04)
   Audio #1
      ID : 1
      Format : MPEG Audio
      Format version : Version 1
      Format profile : Layer 3
      Codec ID : 55
      Codec ID/Hint : MP3
      Duration : 2h 1mn
      Bit rate mode : Constant
      Bit rate : 96.0 Kbps
      Channel(s) : 2 channels
      Sampling rate : 48.0 KHz
      Resolution : 16 bits
      Stream size : 83.7 MiB (12%)
      Alignment : Split accross interleaves
      Interleave, duration : 42 ms (1.00 video frame)
      Interleave, preload duration : 500 ms
      Writing library : LAME3.98r
      Encoding settings : -m j -V 4 -q 3 -lowpass 15.1 -b 96